<svg xmlns="http://www.w3.org/2000/svg" viewBox="0 0 18 16" shape-rendering="crispEdges"><style>@keyframes pxf0{0%{opacity:1}33.3333%{opacity:0}100%{opacity:0}}.f0{opacity:0;animation:pxf0 2700ms steps(1) 0ms infinite}@keyframes pxf1{0%{opacity:1}33.3333%{opacity:0}100%{opacity:0}}.f1{opacity:0;animation:pxf1 2700ms steps(1) 900ms infinite}@keyframes pxf2{0%{opacity:1}33.3333%{opacity:0}100%{opacity:0}}.f2{opacity:0;animation:pxf2 2700ms steps(1) 1800ms infinite}</style><g><rect x="0" y="4" width="1" height="1" fill="#2d1b4e"/><rect x="0" y="5" width="1" height="1" fill="#2d1b4e"/><rect x="0" y="6" width="1" height="1" fill="#2d1b4e"/><rect x="0" y="10" width="1" height="1" fill="#2d1b4e"/><rect x="0" y="11" width="1" height="1" fill="#2d1b4e"/><rect x="0" y="12" width="1" height="1" fill="#2d1b4e"/><rect x="1" y="3" width="1" height="1" fill="#2d1b4e"/><rect x="1" y="7" width="1" height="1" fill="#2d1b4e"/><rect x="1" y="9" width="1" height="1" fill="#2d1b4e"/><rect x="1" y="12" width="1" height="1" fill="#2d1b4e"/><rect x="2" y="2" width="1" height="1" fill="#2d1b4e"/><rect x="2" y="8" width="1" height="1" fill="#2d1b4e"/><rect x="2" y="12" width="1" height="1" fill="#2d1b4e"/><rect x="3" y="2" width="1" height="1" fill="#2d1b4e"/><rect x="3" y="8" width="1" height="1" fill="#2d1b4e"/><rect x="3" y="12" width="1" height="1" fill="#2d1b4e"/><rect x="4" y="2" width="1" height="1" fill="#2d1b4e"/><rect x="4" y="8" width="1" height="1" fill="#2d1b4e"/><rect x="4" y="12" width="1" height="1" fill="#2d1b4e"/><rect x="5" y="3" width="1" height="1" fill="#2d1b4e"/><rect x="5" y="7" width="1" height="1" fill="#2d1b4e"/><rect x="5" y="9" width="1" height="1" fill="#2d1b4e"/><rect x="11" y="3" width="1" height="1" fill="#2d1b4e"/><rect x="11" y="7" width="1" height="1" fill="#2d1b4e"/><rect x="11" y="9" width="1" height="1" fill="#2d1b4e"/><rect x="12" y="2" width="1" height="1" fill="#2d1b4e"/><rect x="12" y="8" width="1" height="1" fill="#2d1b4e"/><rect x="12" y="12" width="1" height="1" fill="#2d1b4e"/><rect x="13" y="2" width="1" height="1" fill="#2d1b4e"/><rect x="13" y="8" width="1" height="1" fill="#2d1b4e"/><rect x="13" y="12" width="1" height="1" fill="#2d1b4e"/><rect x="14" y="2" width="1" height="1" fill="#2d1b4e"/><rect x="14" y="8" width="1" height="1" fill="#2d1b4e"/><rect x="14" y="12" width="1" height="1" fill="#2d1b4e"/><rect x="15" y="3" width="1" height="1" fill="#2d1b4e"/><rect x="15" y="7" width="1" height="1" fill="#2d1b4e"/><rect x="15" y="9" width="1" height="1" fill="#2d1b4e"/><rect x="15" y="12" width="1" height="1" fill="#2d1b4e"/><rect x="16" y="4" width="1" height="1" fill="#2d1b4e"/><rect x="16" y="5" width="1" height="1" fill="#2d1b4e"/><rect x="16" y="6" width="1" height="1" fill="#2d1b4e"/><rect x="16" y="10" width="1" height="1" fill="#2d1b4e"/><rect x="16" y="11" width="1" height="1" fill="#2d1b4e"/><rect x="16" y="12" width="1" height="1" fill="#2d1b4e"/><rect x="5" y="4" width="1" height="1" fill="#2d1b4e"/><rect x="5" y="5" width="1" height="1" fill="#2d1b4e"/><rect x="5" y="6" width="1" height="1" fill="#2d1b4e"/><rect x="5" y="10" width="1" height="1" fill="#2d1b4e"/><rect x="5" y="11" width="1" height="1" fill="#2d1b4e"/><rect x="5" y="12" width="1" height="1" fill="#2d1b4e"/><rect x="6" y="3" width="1" height="1" fill="#2d1b4e"/><rect x="6" y="7" width="1" height="1" fill="#2d1b4e"/><rect x="6" y="9" width="1" height="1" fill="#2d1b4e"/><rect x="6" y="12" width="1" height="1" fill="#2d1b4e"/><rect x="7" y="2" width="1" height="1" fill="#2d1b4e"/><rect x="7" y="8" width="1" height="1" fill="#2d1b4e"/><rect x="7" y="12" width="1" height="1" fill="#2d1b4e"/><rect x="8" y="2" width="1" height="1" fill="#2d1b4e"/><rect x="8" y="8" width="1" height="1" fill="#2d1b4e"/><rect x="8" y="12" width="1" height="1" fill="#2d1b4e"/><rect x="9" y="2" width="1" height="1" fill="#2d1b4e"/><rect x="9" y="8" width="1" height="1" fill="#2d1b4e"/><rect x="9" y="12" width="1" height="1" fill="#2d1b4e"/><rect x="10" y="3" width="1" height="1" fill="#2d1b4e"/><rect x="10" y="7" width="1" height="1" fill="#2d1b4e"/><rect x="10" y="9" width="1" height="1" fill="#2d1b4e"/><rect x="10" y="12" width="1" height="1" fill="#2d1b4e"/><rect x="11" y="4" width="1" height="1" fill="#2d1b4e"/><rect x="11" y="5" width="1" height="1" fill="#2d1b4e"/><rect x="11" y="6" width="1" height="1" fill="#2d1b4e"/><rect x="11" y="10" width="1" height="1" fill="#2d1b4e"/><rect x="11" y="11" width="1" height="1" fill="#2d1b4e"/><rect x="11" y="12" width="1" height="1" fill="#2d1b4e"/></g><g class="f0"><rect x="1" y="4" width="1" height="1" fill="#6fb3ff"/><rect x="1" y="5" width="1" height="1" fill="#6fb3ff"/><rect x="1" y="6" width="1" height="1" fill="#6fb3ff"/><rect x="1" y="10" width="1" height="1" fill="#6fb3ff"/><rect x="1" y="11" width="1" height="1" fill="#6fb3ff"/><rect x="2" y="3" width="1" height="1" fill="#6fb3ff"/><rect x="2" y="4" width="1" height="1" fill="#6fb3ff"/><rect x="2" y="5" width="1" height="1" fill="#6fb3ff"/><rect x="2" y="6" width="1" height="1" fill="#6fb3ff"/><rect x="2" y="7" width="1" height="1" fill="#6fb3ff"/><rect x="2" y="9" width="1" height="1" fill="#6fb3ff"/><rect x="2" y="10" width="1" height="1" fill="#6fb3ff"/><rect x="2" y="11" width="1" height="1" fill="#6fb3ff"/><rect x="3" y="3" width="1" height="1" fill="#6fb3ff"/><rect x="3" y="4" width="1" height="1" fill="#6fb3ff"/><rect x="3" y="5" width="1" height="1" fill="#6fb3ff"/><rect x="3" y="6" width="1" height="1" fill="#6fb3ff"/><rect x="3" y="7" width="1" height="1" fill="#6fb3ff"/><rect x="3" y="9" width="1" height="1" fill="#6fb3ff"/><rect x="3" y="10" width="1" height="1" fill="#6fb3ff"/><rect x="3" y="11" width="1" height="1" fill="#6fb3ff"/><rect x="4" y="3" width="1" height="1" fill="#6fb3ff"/><rect x="4" y="4" width="1" height="1" fill="#6fb3ff"/><rect x="4" y="5" width="1" height="1" fill="#6fb3ff"/><rect x="4" y="6" width="1" height="1" fill="#6fb3ff"/><rect x="4" y="7" width="1" height="1" fill="#6fb3ff"/><rect x="4" y="9" width="1" height="1" fill="#6fb3ff"/><rect x="4" y="10" width="1" height="1" fill="#6fb3ff"/><rect x="4" y="11" width="1" height="1" fill="#6fb3ff"/></g><g class="f1"><rect x="6" y="4" width="1" height="1" fill="#e3b341"/><rect x="6" y="5" width="1" height="1" fill="#e3b341"/><rect x="6" y="6" width="1" height="1" fill="#e3b341"/><rect x="6" y="10" width="1" height="1" fill="#e3b341"/><rect x="6" y="11" width="1" height="1" fill="#e3b341"/><rect x="7" y="3" width="1" height="1" fill="#e3b341"/><rect x="7" y="4" width="1" height="1" fill="#e3b341"/><rect x="7" y="5" width="1" height="1" fill="#e3b341"/><rect x="7" y="6" width="1" height="1" fill="#e3b341"/><rect x="7" y="7" width="1" height="1" fill="#e3b341"/><rect x="7" y="9" width="1" height="1" fill="#e3b341"/><rect x="7" y="10" width="1" height="1" fill="#e3b341"/><rect x="7" y="11" width="1" height="1" fill="#e3b341"/><rect x="8" y="3" width="1" height="1" fill="#e3b341"/><rect x="8" y="4" width="1" height="1" fill="#e3b341"/><rect x="8" y="5" width="1" height="1" fill="#e3b341"/><rect x="8" y="6" width="1" height="1" fill="#e3b341"/><rect x="8" y="7" width="1" height="1" fill="#e3b341"/><rect x="8" y="9" width="1" height="1" fill="#e3b341"/><rect x="8" y="10" width="1" height="1" fill="#e3b341"/><rect x="8" y="11" width="1" height="1" fill="#e3b341"/><rect x="9" y="3" width="1" height="1" fill="#e3b341"/><rect x="9" y="4" width="1" height="1" fill="#e3b341"/><rect x="9" y="5" width="1" height="1" fill="#e3b341"/><rect x="9" y="6" width="1" height="1" fill="#e3b341"/><rect x="9" y="7" width="1" height="1" fill="#e3b341"/><rect x="9" y="9" width="1" height="1" fill="#e3b341"/><rect x="9" y="10" width="1" height="1" fill="#e3b341"/><rect x="9" y="11" width="1" height="1" fill="#e3b341"/><rect x="10" y="4" width="1" height="1" fill="#e3b341"/><rect x="10" y="5" width="1" height="1" fill="#e3b341"/><rect x="10" y="6" width="1" height="1" fill="#e3b341"/><rect x="10" y="10" width="1" height="1" fill="#e3b341"/><rect x="10" y="11" width="1" height="1" fill="#e3b341"/></g><g class="f2"><rect x="12" y="3" width="1" height="1" fill="#b565f0"/><rect x="12" y="4" width="1" height="1" fill="#b565f0"/><rect x="12" y="5" width="1" height="1" fill="#b565f0"/><rect x="12" y="6" width="1" height="1" fill="#b565f0"/><rect x="12" y="7" width="1" height="1" fill="#b565f0"/><rect x="12" y="9" width="1" height="1" fill="#b565f0"/><rect x="12" y="10" width="1" height="1" fill="#b565f0"/><rect x="12" y="11" width="1" height="1" fill="#b565f0"/><rect x="13" y="3" width="1" height="1" fill="#b565f0"/><rect x="13" y="4" width="1" height="1" fill="#b565f0"/><rect x="13" y="5" width="1" height="1" fill="#b565f0"/><rect x="13" y="6" width="1" height="1" fill="#b565f0"/><rect x="13" y="7" width="1" height="1" fill="#b565f0"/><rect x="13" y="9" width="1" height="1" fill="#b565f0"/><rect x="13" y="10" width="1" height="1" fill="#b565f0"/><rect x="13" y="11" width="1" height="1" fill="#b565f0"/><rect x="14" y="3" width="1" height="1" fill="#b565f0"/><rect x="14" y="4" width="1" height="1" fill="#b565f0"/><rect x="14" y="5" width="1" height="1" fill="#b565f0"/><rect x="14" y="6" width="1" height="1" fill="#b565f0"/><rect x="14" y="7" width="1" height="1" fill="#b565f0"/><rect x="14" y="9" width="1" height="1" fill="#b565f0"/><rect x="14" y="10" width="1" height="1" fill="#b565f0"/><rect x="14" y="11" width="1" height="1" fill="#b565f0"/><rect x="15" y="4" width="1" height="1" fill="#b565f0"/><rect x="15" y="5" width="1" height="1" fill="#b565f0"/><rect x="15" y="6" width="1" height="1" fill="#b565f0"/><rect x="15" y="10" width="1" height="1" fill="#b565f0"/><rect x="15" y="11" width="1" height="1" fill="#b565f0"/></g></svg>